<svg xmlns="http://www.w3.org/2000/svg" style="display: none;">

  <symbol id="cplusplus" viewBox="0 0 128 128">
    <path fill="#D26383"
          d="M115.4 30.7L67.1 2.9c-.8-.5-1.9-.7-3.1-.7-1.2 0-2.3.3-3.1.7l-48 27.9c-1.7 1-2.9 3.5-2.9 5.4v55.7c0 1.1.2 2.4 1 3.5l106.8-62c-.6-1.2-1.5-2.1-2.4-2.7z"></path>
    <path fill="#9C033A"
          d="M10.7 95.3c.5.8 1.2 1.5 1.9 1.9l48.2 27.9c.8.5 1.9.7 3.1.7 1.2 0 2.3-.3 3.1-.7l48-27.9c1.7-1 2.9-3.5 2.9-5.4V36.1c0-.9-.1-1.9-.6-2.8l-106.6 62z"></path>
    <path fill="#fff"
          d="M85.3 76.1C81.1 83.5 73.1 88.5 64 88.5c-13.5 0-24.5-11-24.5-24.5s11-24.5 24.5-24.5c9.1 0 17.1 5 21.3 12.5l13-7.5c-6.8-11.9-19.6-20-34.3-20-21.8 0-39.5 17.7-39.5 39.5s17.7 39.5 39.5 39.5c14.6 0 27.4-8 34.2-19.8l-12.9-7.6z"></path>
    <path
      d="M82.1 61.8h5.2v-5.3h4.4v5.3H97v4.4h-5.3v5.2h-4.4v-5.2h-5.2v-4.4zm18.5 0h5.2v-5.3h4.4v5.3h5.3v4.4h-5.3v5.2h-4.4v-5.2h-5.2v-4.4z"
      fill="#fff"></path>
  </symbol>

  <symbol id="csharp" viewBox="0 0 128 128">
    <path fill="#9B4F96"
          d="M115.4 30.7L67.1 2.9c-.8-.5-1.9-.7-3.1-.7-1.2 0-2.3.3-3.1.7l-48 27.9c-1.7 1-2.9 3.5-2.9 5.4v55.7c0 1.1.2 2.4 1 3.5l106.8-62c-.6-1.2-1.5-2.1-2.4-2.7z"></path>
    <path fill="#68217A"
          d="M10.7 95.3c.5.8 1.2 1.5 1.9 1.9l48.2 27.9c.8.5 1.9.7 3.1.7 1.2 0 2.3-.3 3.1-.7l48-27.9c1.7-1 2.9-3.5 2.9-5.4V36.1c0-.9-.1-1.9-.6-2.8l-106.6 62z"></path>
    <path fill="#fff"
          d="M85.3 76.1C81.1 83.5 73.1 88.5 64 88.5c-13.5 0-24.5-11-24.5-24.5s11-24.5 24.5-24.5c9.1 0 17.1 5 21.3 12.5l13-7.5c-6.8-11.9-19.6-20-34.3-20-21.8 0-39.5 17.7-39.5 39.5s17.7 39.5 39.5 39.5c14.6 0 27.4-8 34.2-19.8l-12.9-7.6zM97 66.2l.9-4.3h-4.2v-4.7h5.1L100 51h4.9l-1.2 6.1h3.8l1.2-6.1h4.8l-1.2 6.1h2.4v4.7h-3.3l-.9 4.3h4.2v4.7h-5.1l-1.2 6h-4.9l1.2-6h-3.8l-1.2 6h-4.8l1.2-6h-2.4v-4.7H97zm4.8 0h3.8l.9-4.3h-3.8l-.9 4.3z"></path>
  </symbol>

  <symbol id="html" viewBox="0 0 128 128">
    <path fill="#E44D26" d="M19.037 113.876L9.032 1.661h109.936l-10.016 112.198-45.019 12.48z"></path>
    <path fill="#F16529" d="M64 116.8l36.378-10.086 8.559-95.878H64z"></path>
    <path fill="#EBEBEB"
          d="M64 52.455H45.788L44.53 38.361H64V24.599H29.489l.33 3.692 3.382 37.927H64zm0 35.743l-.061.017-15.327-4.14-.979-10.975H33.816l1.928 21.609 28.193 7.826.063-.017z"></path>
    <path fill="#fff"
          d="M63.952 52.455v13.763h16.947l-1.597 17.849-15.35 4.143v14.319l28.215-7.82.207-2.325 3.234-36.233.335-3.696h-3.708zm0-27.856v13.762h33.244l.276-3.092.628-6.978.329-3.692z"></path>
  </symbol>

  <symbol id="css" viewBox="0 0 128 128">
    <path fill="#1572B6"
          d="M18.814 114.123L8.76 1.352h110.48l-10.064 112.754-45.243 12.543-45.119-12.526z"></path>
    <path fill="#33A9DC" d="M64.001 117.062l36.559-10.136 8.601-96.354h-45.16v106.49z"></path>
    <path fill="#fff"
          d="M64.001 51.429h18.302l1.264-14.163H64.001V23.435h34.682l-.332 3.711-3.4 38.114h-30.95V51.429z"></path>
    <path fill="#EBEBEB"
          d="M64.083 87.349l-.061.018-15.403-4.159-.985-11.031H33.752l1.937 21.717 28.331 7.863.063-.018v-14.39z"></path>
    <path fill="#fff"
          d="M81.127 64.675l-1.666 18.522-15.426 4.164v14.39l28.354-7.858.208-2.337 2.406-26.881H81.127z"></path>
    <path fill="#EBEBEB"
          d="M64.048 23.435v13.831H30.64l-.277-3.108-.63-7.012-.331-3.711h34.646zm-.047 27.996v13.831H48.792l-.277-3.108-.631-7.012-.33-3.711h16.447z"></path>
  </symbol>

  <symbol id="sass" viewBox="0 0 128 128">
    <path fill-rule="evenodd" clip-rule="evenodd" fill="#CB6699"
          d="M1.219 56.156c0 .703.207 1.167.323 1.618.756 2.933 2.381 5.45 4.309 7.746 2.746 3.272 6.109 5.906 9.554 8.383 2.988 2.148 6.037 4.248 9.037 6.38.515.366 1.002.787 1.561 1.236-.481.26-.881.489-1.297.7-3.959 2.008-7.768 4.259-11.279 6.986-2.116 1.644-4.162 3.391-5.607 5.674-2.325 3.672-3.148 7.584-1.415 11.761.506 1.22 1.278 2.274 2.367 3.053.353.252.749.502 1.162.6 1.058.249 2.136.412 3.207.609l3.033-.002c3.354-.299 6.407-1.448 9.166-3.352 4.312-2.976 7.217-6.966 8.466-12.087.908-3.722.945-7.448-.125-11.153a11.696 11.696 0 00-.354-1.014c-.13-.333-.283-.657-.463-1.072l6.876-3.954.103.088c-.125.409-.258.817-.371 1.23-.817 2.984-1.36 6.02-1.165 9.117.208 3.3 1.129 6.389 3.061 9.146 1.562 2.23 5.284 2.313 6.944.075.589-.795 1.16-1.626 1.589-2.513 1.121-2.315 2.159-4.671 3.23-7.011l.187-.428c-.077 1.108-.167 2.081-.208 3.055-.064 1.521.025 3.033.545 4.48.445 1.238 1.202 2.163 2.62 2.326.97.111 1.743-.333 2.456-.896a10.384 10.384 0 002.691-3.199c1.901-3.491 3.853-6.961 5.576-10.54 1.864-3.871 3.494-7.855 5.225-11.792l.286-.698c.409 1.607.694 3.181 1.219 4.671.61 1.729 1.365 3.417 2.187 5.058.389.775.344 1.278-.195 1.928-2.256 2.72-4.473 5.473-6.692 8.223-.491.607-.98 1.225-1.389 1.888a3.701 3.701 0 00-.48 1.364 1.737 1.737 0 001.383 1.971 9.661 9.661 0 002.708.193c3.097-.228 5.909-1.315 8.395-3.157 3.221-2.386 4.255-5.642 3.475-9.501-.211-1.047-.584-2.065-.947-3.074-.163-.455-.174-.774.123-1.198 2.575-3.677 4.775-7.578 6.821-11.569.081-.157.164-.314.306-.482.663 3.45 1.661 6.775 3.449 9.792-.912.879-1.815 1.676-2.632 2.554-1.799 1.934-3.359 4.034-4.173 6.595-.35 1.104-.619 2.226-.463 3.405.242 1.831 1.742 3.021 3.543 2.604 3.854-.892 7.181-2.708 9.612-5.925 1.636-2.166 1.785-4.582 1.1-7.113-.188-.688-.411-1.365-.651-2.154.951-.295 1.878-.649 2.837-.868 4.979-1.136 9.904-.938 14.702.86 2.801 1.05 5.064 2.807 6.406 5.571 1.639 3.379.733 6.585-2.452 8.721-.297.199-.637.356-.883.605a.869.869 0 00-.205.67c.021.123.346.277.533.275 1.047-.008 1.896-.557 2.711-1.121 2.042-1.413 3.532-3.314 3.853-5.817l.063-.188-.077-1.63c-.031-.094.023-.187.016-.258-.434-3.645-2.381-6.472-5.213-8.688-3.28-2.565-7.153-3.621-11.249-3.788a25.401 25.401 0 00-9.765 1.503c-.897.325-1.786.71-2.688 1.073-.121-.219-.251-.429-.358-.646-.926-1.896-2.048-3.708-2.296-5.882-.176-1.544-.392-3.086-.025-4.613.353-1.469.813-2.913 1.246-4.362.223-.746.066-1.164-.646-1.5a2.854 2.854 0 00-.786-.258c-1.75-.254-3.476-.109-5.171.384-.6.175-1.036.511-1.169 1.175-.076.381-.231.746-.339 1.122-.443 1.563-.757 3.156-1.473 4.645-1.794 3.735-3.842 7.329-5.938 10.897-.227.385-.466.763-.752 1.23-.736-1.54-1.521-2.922-1.759-4.542-.269-1.832-.481-3.661-.025-5.479.339-1.356.782-2.687 1.19-4.025.193-.636.104-.97-.472-1.305-.291-.169-.62-.319-.948-.368a11.643 11.643 0 00-5.354.438c-.543.176-.828.527-.994 1.087-.488 1.652-.904 3.344-1.589 4.915-2.774 6.36-5.628 12.687-8.479 19.013-.595 1.321-1.292 2.596-1.963 3.882-.17.326-.418.613-.63.919-.17-.201-.236-.339-.235-.477.005-.813-.092-1.65.063-2.436a172.189 172.189 0 011.578-7.099c.47-1.946 1.017-3.874 1.538-5.807.175-.647.178-1.252-.287-1.796-.781-.911-2.413-1.111-3.381-.409l-.428.242.083-.69c.204-1.479.245-2.953-.161-4.41-.506-1.816-1.802-2.861-3.686-2.803-.878.027-1.8.177-2.613.497-3.419 1.34-6.048 3.713-8.286 6.568a2.592 2.592 0 01-.757.654c-2.893 1.604-5.795 3.188-8.696 4.778l-3.229 1.769c-.866-.826-1.653-1.683-2.546-2.41-2.727-2.224-5.498-4.393-8.244-6.592-2.434-1.949-4.792-3.979-6.596-6.56-1.342-1.92-2.207-4.021-2.29-6.395-.105-3.025.753-5.789 2.293-8.362 1.97-3.292 4.657-5.934 7.611-8.327 3.125-2.53 6.505-4.678 10.008-6.639 4.901-2.743 9.942-5.171 15.347-6.774 5.542-1.644 11.165-2.585 16.965-1.929 2.28.258 4.494.78 6.527 1.895 1.557.853 2.834 1.97 3.428 3.716.586 1.718.568 3.459.162 5.204-.825 3.534-2.76 6.447-5.195 9.05-3.994 4.267-8.866 7.172-14.351 9.091a39.478 39.478 0 01-9.765 2.083c-2.729.229-5.401-.013-7.985-.962-1.711-.629-3.201-1.591-4.399-2.987-.214-.25-.488-.521-.887-.287-.391.23-.46.602-.329.979.219.626.421 1.278.762 1.838.857 1.405 2.107 2.424 3.483 3.298 2.643 1.681 5.597 2.246 8.66 2.377 4.648.201 9.183-.493 13.654-1.74 6.383-1.78 11.933-4.924 16.384-9.884 3.706-4.13 6.353-8.791 6.92-14.419.277-2.747-.018-5.438-1.304-7.944-1.395-2.715-3.613-4.734-6.265-6.125C68.756 18.179 64.588 17 60.286 17h-4.31c-5.21 0-10.247 1.493-15.143 3.274-3.706 1.349-7.34 2.941-10.868 4.703-7.683 3.839-14.838 8.468-20.715 14.833-2.928 3.171-5.407 6.67-6.833 10.79a40.494 40.494 0 00-1.111 3.746m27.839 36.013c-.333 4.459-2.354 8.074-5.657 11.002-1.858 1.646-3.989 2.818-6.471 3.23-.9.149-1.821.185-2.694-.188-1.245-.532-1.524-1.637-1.548-2.814-.037-1.876.62-3.572 1.521-5.186 1.176-2.104 2.9-3.708 4.741-5.206 2.9-2.361 6.046-4.359 9.268-6.245l.243-.1c.498 1.84.735 3.657.597 5.507zM54.303 70.98c-.235 1.424-.529 2.849-.945 4.229-1.438 4.777-3.285 9.406-5.282 13.973-.369.845-.906 1.616-1.373 2.417a1.689 1.689 0 01-.283.334c-.578.571-1.126.541-1.418-.206-.34-.868-.549-1.797-.729-2.716-.121-.617-.092-1.265-.13-1.897.039-4.494 1.41-8.578 3.736-12.38.959-1.568 2.003-3.062 3.598-4.054a6.27 6.27 0 011.595-.706c.85-.239 1.372.154 1.231 1.006zm17.164 21.868l6.169-7.203c.257 2.675-4.29 8.015-6.169 7.203zm19.703-4.847c-.436.25-.911.43-1.358.661-.409.212-.544-.002-.556-.354a2.385 2.385 0 01.093-.721c.833-2.938 2.366-5.446 4.647-7.486l.16-.082c1.085 3.035-.169 6.368-2.986 7.982z"></path>
  </symbol>

  <symbol id="javascript" viewBox="0 0 128 128">
    <path fill="#F0DB4F" d="M1.408 1.408h125.184v125.185H1.408z"></path>
    <path fill="#323330"
          d="M116.347 96.736c-.917-5.711-4.641-10.508-15.672-14.981-3.832-1.761-8.104-3.022-9.377-5.926-.452-1.69-.512-2.642-.226-3.665.821-3.32 4.784-4.355 7.925-3.403 2.023.678 3.938 2.237 5.093 4.724 5.402-3.498 5.391-3.475 9.163-5.879-1.381-2.141-2.118-3.129-3.022-4.045-3.249-3.629-7.676-5.498-14.756-5.355l-3.688.477c-3.534.893-6.902 2.748-8.877 5.235-5.926 6.724-4.236 18.492 2.975 23.335 7.104 5.332 17.54 6.545 18.873 11.531 1.297 6.104-4.486 8.08-10.234 7.378-4.236-.881-6.592-3.034-9.139-6.949-4.688 2.713-4.688 2.713-9.508 5.485 1.143 2.499 2.344 3.63 4.26 5.795 9.068 9.198 31.76 8.746 35.83-5.176.165-.478 1.261-3.666.38-8.581zM69.462 58.943H57.753l-.048 30.272c0 6.438.333 12.34-.714 14.149-1.713 3.558-6.152 3.117-8.175 2.427-2.059-1.012-3.106-2.451-4.319-4.485-.333-.584-.583-1.036-.667-1.071l-9.52 5.83c1.583 3.249 3.915 6.069 6.902 7.901 4.462 2.678 10.459 3.499 16.731 2.059 4.082-1.189 7.604-3.652 9.448-7.401 2.666-4.915 2.094-10.864 2.07-17.444.06-10.735.001-21.468.001-32.237z"></path>
  </symbol>

  <symbol id="git" viewBox="0 0 128 128">
    <path fill="#F34F29"
          d="M124.737 58.378L69.621 3.264c-3.172-3.174-8.32-3.174-11.497 0L46.68 14.71l14.518 14.518c3.375-1.139 7.243-.375 9.932 2.314 2.703 2.706 3.461 6.607 2.294 9.993l13.992 13.993c3.385-1.167 7.292-.413 9.994 2.295 3.78 3.777 3.78 9.9 0 13.679a9.673 9.673 0 01-13.683 0 9.677 9.677 0 01-2.105-10.521L68.574 47.933l-.002 34.341a9.708 9.708 0 012.559 1.828c3.778 3.777 3.778 9.898 0 13.683-3.779 3.777-9.904 3.777-13.679 0-3.778-3.784-3.778-9.905 0-13.683a9.65 9.65 0 013.167-2.11V47.333a9.581 9.581 0 01-3.167-2.111c-2.862-2.86-3.551-7.06-2.083-10.576L41.056 20.333 3.264 58.123a8.133 8.133 0 000 11.5l55.117 55.114c3.174 3.174 8.32 3.174 11.499 0l54.858-54.858a8.135 8.135 0 00-.001-11.501z"></path>
  </symbol>

  <symbol id="github" viewBox="0 0 128 128">
    <g>
      <path fill-rule="evenodd" clip-rule="evenodd"
            d="M64 5.103c-33.347 0-60.388 27.035-60.388 60.388 0 26.682 17.303 49.317 41.297 57.303 3.017.56 4.125-1.31 4.125-2.905 0-1.44-.056-6.197-.082-11.243-16.8 3.653-20.345-7.125-20.345-7.125-2.747-6.98-6.705-8.836-6.705-8.836-5.48-3.748.413-3.67.413-3.67 6.063.425 9.257 6.223 9.257 6.223 5.386 9.23 14.127 6.562 17.573 5.02.542-3.903 2.107-6.568 3.834-8.076-13.413-1.525-27.514-6.704-27.514-29.843 0-6.593 2.36-11.98 6.223-16.21-.628-1.52-2.695-7.662.584-15.98 0 0 5.07-1.623 16.61 6.19C53.7 35 58.867 34.327 64 34.304c5.13.023 10.3.694 15.127 2.033 11.526-7.813 16.59-6.19 16.59-6.19 3.287 8.317 1.22 14.46.593 15.98 3.872 4.23 6.215 9.617 6.215 16.21 0 23.194-14.127 28.3-27.574 29.796 2.167 1.874 4.097 5.55 4.097 11.183 0 8.08-.07 14.583-.07 16.572 0 1.607 1.088 3.49 4.148 2.897 23.98-7.994 41.263-30.622 41.263-57.294C124.388 32.14 97.35 5.104 64 5.104z"></path>
      <path
        d="M26.484 91.806c-.133.3-.605.39-1.035.185-.44-.196-.685-.605-.543-.906.13-.31.603-.395 1.04-.188.44.197.69.61.537.91zm2.446 2.729c-.287.267-.85.143-1.232-.28-.396-.42-.47-.983-.177-1.254.298-.266.844-.14 1.24.28.394.426.472.984.17 1.255zM31.312 98.012c-.37.258-.976.017-1.35-.52-.37-.538-.37-1.183.01-1.44.373-.258.97-.025 1.35.507.368.545.368 1.19-.01 1.452zm3.261 3.361c-.33.365-1.036.267-1.552-.23-.527-.487-.674-1.18-.343-1.544.336-.366 1.045-.264 1.564.23.527.486.686 1.18.333 1.543zm4.5 1.951c-.147.473-.825.688-1.51.486-.683-.207-1.13-.76-.99-1.238.14-.477.823-.7 1.512-.485.683.206 1.13.756.988 1.237zm4.943.361c.017.498-.563.91-1.28.92-.723.017-1.308-.387-1.315-.877 0-.503.568-.91 1.29-.924.717-.013 1.306.387 1.306.88zm4.598-.782c.086.485-.413.984-1.126 1.117-.7.13-1.35-.172-1.44-.653-.086-.498.422-.997 1.122-1.126.714-.123 1.354.17 1.444.663zm0 0"></path>
    </g>
  </symbol>

  <symbol id="gitlab" viewBox="0 0 128 128">
    <path fill="#FC6D26"
          d="M126.615 72.31l-7.034-21.647L105.64 7.76c-.716-2.206-3.84-2.206-4.556 0l-13.94 42.903H40.856L26.916 7.76c-.717-2.206-3.84-2.206-4.557 0L8.42 50.664 1.385 72.31a4.792 4.792 0 001.74 5.358L64 121.894l60.874-44.227a4.793 4.793 0 001.74-5.357"></path>
    <path fill="#E24329" d="M64 121.894l23.144-71.23H40.856L64 121.893z"></path>
    <path fill="#FC6D26" d="M64 121.894l-23.144-71.23H8.42L64 121.893z"></path>
    <path fill="#FCA326" d="M8.42 50.663L1.384 72.31a4.79 4.79 0 001.74 5.357L64 121.894 8.42 50.664z"></path>
    <path fill="#E24329"
          d="M8.42 50.663h32.436L26.916 7.76c-.717-2.206-3.84-2.206-4.557 0L8.42 50.664z"></path>
    <path fill="#FC6D26" d="M64 121.894l23.144-71.23h32.437L64 121.893z"></path>
    <path fill="#FCA326"
          d="M119.58 50.663l7.035 21.647a4.79 4.79 0 01-1.74 5.357L64 121.894l55.58-71.23z"></path>
    <path fill="#E24329"
          d="M119.58 50.663H87.145l13.94-42.902c.717-2.206 3.84-2.206 4.557 0l13.94 42.903z"></path>
  </symbol>

  <symbol id="mssql" viewBox="0 0 128 128">
    <path
      d="M75.39 15.31c-.2.06-1.25.41-2.36.77-5.94 1.94-10.15 4.19-11.19 5.98-.4.68-.47 1.24-.24 1.79.26.62.74 1.1 2.06 2.03.62.44 1.67 1.34 2.36 2.02 3.27 3.26 4.85 7.26 4.67 11.78-.2 5.09-2.59 10.18-7.15 15.26-1.59 1.78-3.23 3.26-6.36 5.77-2.61 2.09-4.03 3.45-5 4.76-2.97 4.04-2.17 7.64 2.35 10.65 3.99 2.66 11.02 4.87 19.32 6.07 2.78.4 5.92.66 6.68.55l.53-.08.83-1.5c4.21-7.57 6.33-14.72 6.59-22.11.11-3.3-.3-7.2-1.01-9.48-.13-.41-.22-.76-.21-.77.01-.01 1.19-.37 2.61-.79 7.49-2.23 14.74-3.99 20.73-5.03 1.17-.2 2.16-.41 2.21-.46.32-.31-.61-1.77-2.13-3.33-5.6-5.78-15.5-10.18-27.12-12.06-2.24-.36-2.51-.49-3.34-1.59-1.32-1.75-2.56-4.73-4.25-10.2-.05-.18-.1-.18-.58-.03zm.77 2.06c.65 1.78 1.05 3.17 1.05 3.66v.39l-.55-.06c-2.99-.35-7.77-1.09-8.79-1.36-.26-.07-.41-.17-.36-.25.08-.12 1.09-.61 4.11-1.98 2.81-1.28 3.88-1.75 3.97-1.76.04-.01.29.61.57 1.36zm-6.33 3.75c3.65.77 6.32 1.25 6.9 1.25.57 0 .51.05-2.18 1.69-2.07 1.26-2.31 1.38-2.83 1.38h-.57l-1.54-1.55c-1.86-1.88-3.12-3.26-3.12-3.42 0-.06.04-.08.09-.05.05.01 1.52.33 3.25.7zm-2.7 1.73c.9 1.05 1.59 1.93 1.55 1.96-.08.07-2.64-.56-4.2-1.04-1.37-.42-1.53-.56-1.17-1.03.24-.31 2-1.78 2.13-1.79.04 0 .79.85 1.69 1.9zm11.66 2.16c.36.85.63 1.54.62 1.55-.02.01-4.82-.73-5.24-.81-.09-.02.72-.57 1.82-1.24s2.02-1.17 2.07-1.12c.05.05.37.77.73 1.62zm-10.47 1.62c.09.09 1.24 3.78 1.19 3.83-.02.02-.56-.61-1.21-1.41-.65-.8-1.63-1.93-2.2-2.51l-1.02-1.07 1.58.55c.88.29 1.62.57 1.66.61zm4.59.49c1.99.28 3.64.54 3.67.57.03.03-1.18.97-2.67 2.08-1.5 1.11-2.73 2.01-2.75 1.99-.02-.02-.17-.48-.34-1.04-.17-.55-.59-1.7-.94-2.56-.35-.86-.63-1.56-.61-1.56.01 0 1.65.24 3.64.52zm5 1.59c.44 1.03.61 2.01.68 3.98.04 1.06.04 1.92.01 1.92-.04 0-.67-.22-1.4-.48-1.46-.53-4.32-1.47-4.66-1.54-.15-.03.54-.69 2.36-2.25 1.41-1.22 2.61-2.21 2.67-2.21.05 0 .2.26.34.58zm5.13.25c2.2.45 4.13.85 4.28.89.22.05-.31.38-2.64 1.66-1.6.88-3.42 1.88-4.04 2.23-.62.35-1.14.62-1.15.61-.01-.01.05-.34.14-.73.33-1.43.12-3.21-.54-4.63-.19-.41-.35-.78-.35-.8.01-.11.41-.03 4.3.77zm6.01 2.69c-.11.5-.36 1.35-.55 1.9-.42 1.21-1.96 4.36-2.17 4.44-.08.03-.81-.3-1.6-.74s-1.94-1.02-2.54-1.29l-1.1-.49 4.03-2.59c3.34-2.14 4.04-2.55 4.08-2.36.03.13-.04.63-.15 1.13zm2.95-.92c4.18 1.2 8.6 2.82 8.34 3.06-.05.05-.6.23-1.21.4-3.16.89-7.55 2.41-9.6 3.32-.64.28-1.19.49-1.22.45-.03-.03.22-.95.56-2.05.66-2.16 1.43-5.07 1.43-5.44 0-.16.06-.22.21-.18.1.04.77.24 1.49.44zm-17.99 4.34c.95.31 2.07.74 2.48.95.74.37.75.38.54.61-.38.42-4.53 4.29-4.65 4.33-.06.02-.11-.56-.11-1.41 0-1.47-.17-4.13-.3-4.72-.1-.45-.02-.44 2.04.24zm26.56.77c-.91 1.51-2.42 3.66-3.5 5.02-1.11 1.39-3.46 4-3.6 4-.05 0-.39-.42-.76-.94-1.34-1.91-2.89-3.56-4.25-4.52-.13-.09-.21-.19-.18-.22s2.26-.85 4.95-1.83c5.44-1.97 7.84-2.77 7.99-2.67.02.01-.27.53-.65 1.16zm3.4-.26c3.76 2.62 6.31 4.74 7.23 6.01.23.32.4.59.38.61-.02.02-1.23.15-2.69.3-5.83.57-9.98 1.16-12.18 1.72-.59.15-1.08.26-1.09.25-.01-.01.38-.49.87-1.08 2.54-3.05 4.84-6.22 5.69-7.87.23-.44.45-.79.49-.79.05 0 .63.38 1.3.85zm-21.04 3.25c.72.39 1.27.74 1.24.8-.06.11-6.39 3.58-6.45 3.53-.01-.01.31-1.05.73-2.32.42-1.27.82-2.65.9-3.07l.14-.77 1.07.57c.59.31 1.65.87 2.37 1.26zm-5.31.2c-.61 2.12-1.85 4.86-2.42 5.33-.13.11-.39-.04-1.22-.72-.59-.47-1.19-.94-1.35-1.05-.15-.11-.27-.22-.24-.25.44-.43 5.48-4.5 5.51-4.44.01.04-.11.55-.28 1.13zm11.48 3.69c.95.64 3.07 2.53 2.96 2.65-.03.03-2.18.73-4.77 1.55-2.59.82-5.48 1.75-6.42 2.06-.94.32-1.72.56-1.73.55-.01-.01.65-.76 1.46-1.67 2.12-2.37 4.3-4.9 5.08-5.9l.67-.86.87.47c.47.26 1.32.78 1.88 1.15zm-4.91-1.36c-.06.08-.63.8-1.27 1.61s-2.18 2.78-3.42 4.38l-2.26 2.91-.07-.49c-.14-.95-.65-2.82-.94-3.45l-.29-.64 1.44-.72c1.48-.74 4.58-2.42 6.03-3.27.89-.52.95-.55.78-.33zm-12 3.52c.59.3 1.14.7 1.14.82 0 .19-3.83 3.15-3.94 3.04-.02-.03.32-.71.77-1.52s.9-1.72 1.01-2.03c.11-.31.27-.56.36-.56.09-.01.38.11.66.25zm3.26 3.64c.26.52.54 1.97.4 2.1-.06.05-1.64.8-3.52 1.67-1.88.86-4.33 2.02-5.45 2.58s-1.97.95-1.88.88c.08-.07 1.31-1.11 2.74-2.29 2.76-2.29 5.9-5.03 6.47-5.64l.35-.37.34.32c.18.18.43.52.55.75zm-3.09-.03c-.27.25-1.75 1.53-3.27 2.85s-3.35 2.91-4.06 3.53c-1.44 1.25-1.44 1.25.4-1.14 1.42-1.85 2.16-2.54 4.2-3.91.99-.66 2.96-1.78 3.16-1.78.03 0-.16.2-.43.45zm14.27 1.26c.07.39.17 1.6.21 2.68l.07 1.97-.46-.21c-1.58-.73-6.02-3.23-5.85-3.3.97-.39 5.76-1.98 5.82-1.92.04.04.14.39.21.78zm-3.76 3.53c1.85 1.09 3.38 1.99 3.4 2.01.02.02-.22.22-.52.44-.59.43-6.85 3.67-6.94 3.59-.03-.03.06-.57.19-1.19.26-1.26.48-5.02.38-6.21-.04-.42-.02-.72.04-.68.04.03 1.6.95 3.45 2.04zm-5.11-.8c.14 1.17-.03 3.52-.35 4.75-.37 1.44-.59 2.04-.75 2.09-.22.07-1.59-1.17-2.42-2.21-.84-1.05-1.95-3.02-1.78-3.18.1-.1 4.98-2.11 5.14-2.11.04-.01.11.29.16.66zm-5.99 2.94c.52 1.07 1.7 2.61 2.99 3.92.83.84 1.04 1.11.91 1.2-.58.39-3.18 1.61-4.82 2.25-1.99.78-4.58 1.68-4.64 1.6-.02-.03.57-1.11 1.32-2.4 1.62-2.81 3.67-6.8 3.67-7.13.01-.41.18-.24.57.56zm-3.07.07c-.03.08-.28.7-.55 1.38-1.15 2.92-3.39 6.89-3.89 6.89-.39 0-.96-2.31-1.12-4.53l-.08-1.12 2.74-1.38c1.51-.76 2.79-1.38 2.85-1.38.06-.01.08.06.05.14zm18.29 2.7c.01 1.68-.69 5.75-1.07 6.16-.16.17-1.89-.47-3.46-1.28-1.4-.72-3.71-2.15-3.71-2.3 0-.04.35-.22.79-.4.83-.35 4.7-2.42 6.34-3.39l.94-.56.08.43c.04.24.08.85.09 1.34zm-25.81 1.94c.16 1.33.57 2.96 1.08 4.25.21.53.36.99.33 1.01-.2.18-8.43 2.45-9.52 2.62l-.52.08.08-.4c.11-.57.91-2.19 1.5-3.07.74-1.09 2.56-2.92 3.76-3.77.9-.63 3.06-1.9 3.12-1.82.04.01.1.5.17 1.1zm18.67 2.81c2.54 1.22 3.5 1.64 4.72 2.06l.93.32-.59.3c-3.33 1.69-9.23 4.09-10.75 4.39-.34.07-.39.05-.32-.12.26-.68 3.78-7.95 3.85-7.95.04 0 1.02.45 2.16 1zm-4.47-.27c-.18.86-1.15 3.63-1.71 4.89-.49 1.1-1.62 3.23-1.82 3.43-.09.09-2.1-1.04-3.05-1.72-1.07-.76-3.41-3.02-3.34-3.23.03-.08 1.45-.63 3.17-1.22 3.62-1.25 5.64-2 6.23-2.31.56-.3.61-.28.52.16zm10.12 3.82c-.03.25-.24 1.34-.46 2.45-.69 3.46-1.53 5.83-2.06 5.83-.74 0-5.78-1.22-7.41-1.8-1.11-.39-2.06-.84-2.38-1.11-.2-.17-.09-.23 1.35-.82 4.66-1.9 10.04-4.33 10.62-4.79.35-.28.4-.24.34.24zm-23.6 1.06c-.53.95-1.61 2.51-3.68 5.3l-1.76 2.38-.53-.38c-.74-.53-1.92-1.81-2.41-2.62-.53-.87-.89-1.95-.93-2.77l-.03-.64.87-.09c1.18-.12 4.49-.8 6.84-1.42 1.07-.28 1.96-.49 1.98-.48.01.03-.14.35-.35.72zM67.03 70c.59.42 1.4.96 1.81 1.2l.75.44-.34.14c-.19.08-2.93 1.08-6.1 2.22-5.41 1.95-5.76 2.07-5.91 1.87-.09-.12-.15-.24-.14-.28.01-.04 1.47-1.93 3.25-4.2l3.23-4.13 1.19.99c.67.55 1.67 1.33 2.26 1.75zm1.33 6.21c-1.18 1.77-2.18 3.26-2.22 3.3-.09.12-1.98-.32-3.39-.8-1.48-.5-3.31-1.42-4.03-2.04l-.52-.45 1.17-.32c4.77-1.3 11.08-2.97 11.11-2.95.02.02-.94 1.49-2.12 3.26zm5.67-2.68c2.53.87 4.83 1.36 7.82 1.68l.82.09-2.23.8c-5.56 2.01-10.07 3.42-12.33 3.86-.64.12-1.22.23-1.28.23-.06 0 .39-.62 1.01-1.38 1.7-2.07 3.54-4.43 4.03-5.16.24-.35.48-.65.53-.65.06.01.79.24 1.63.53zm8.29 4.68c-.96 2.47-1.66 3.98-1.9 4.07-.47.18-7.04-.78-9.05-1.33-1.33-.36-2.18-.71-1.93-.8.1-.03 1.05-.26 2.12-.5 3.47-.78 8.77-2.39 10.97-3.33.28-.12.53-.21.55-.19.02.02-.32.95-.76 2.08zM43.47 80.3c-.47.2-.69.59-.74 1.32-.05.68-.05.69-.39.69s-.35.02-.31.5c.03.45.07.5.36.54l.32.04v3.66l.55-.05.56-.04.04-1.8.04-1.8h1.64v1.32c0 1.64.17 2.07.88 2.31.32.11.62.13.94.06.45-.09.47-.12.51-.6l.04-.51-.39.07c-.68.12-.72.04-.7-1.62l.01-1.02h.34c.59 0 .72-.11.72-.6v-.46h-1.06v-.44c0-.65-.11-.76-.72-.72l-.52.03-.04.56-.04.56h-1.63v-.4c0-.55.29-.82.79-.72.38.07.39.07.39-.32 0-.21-.07-.46-.14-.54-.16-.14-1.1-.16-1.45-.02zM17.41 80.49c-.51.36-.26 1.11.38 1.11.66 0 .78-.09.78-.6-.01-.65-.59-.91-1.16-.51zM8.75 80.81c-.18.13-.2.43-.17 3.15l.03 3 .56.04.56.04v-2.61c0-1.44.03-2.59.06-2.56.04.03.38.98.77 2.11s.79 2.28.89 2.56l.19.51.59-.05.59-.04.9-2.5.9-2.5.06 2.5c.04 1.38.08 2.52.09 2.54.01.02.28.02.58 0l.56-.04.03-2.99c.02-2.11-.01-3.04-.11-3.16-.21-.26-1.54-.21-1.78.06-.1.12-.52 1.09-.92 2.15-.4 1.06-.76 1.97-.8 2.02-.04.05-.39-.8-.78-1.88-.39-1.1-.82-2.08-.97-2.23-.21-.21-.39-.27-.95-.27-.37 0-.77.07-.88.15zM20.87 82.31c-.86.28-1.37 1.17-1.37 2.42 0 1.4.53 2.16 1.65 2.35.51.09 1.38-.11 1.68-.38.2-.18.29-.85.13-1-.04-.04-.26.03-.49.16-.85.46-1.48.2-1.68-.69-.13-.59.01-1.35.32-1.68.25-.27.87-.29 1.35-.04.45.23.58.15.58-.37 0-.29-.07-.45-.28-.58-.36-.25-1.42-.34-1.89-.19zM25.46 82.55c-.41.36-.41.36-.45.09-.03-.23-.11-.28-.54-.31l-.5-.04v4.72h1.18v-1.46c0-1.46 0-1.46.35-1.84.29-.31.42-.37.77-.33.44.05.53-.05.53-.6 0-.68-.68-.8-1.34-.23zM28.72 82.33c-.95.28-1.53 1.39-1.41 2.7.11 1.21.73 1.9 1.85 2.06 1.98.27 3.27-1.35 2.71-3.39-.34-1.2-1.7-1.8-3.15-1.37zm1.38.92c.62.33.78 1.77.27 2.45-.32.42-1.03.5-1.46.16-.26-.21-.28-.31-.28-1.19 0-.91.02-.98.33-1.25.34-.3.78-.36 1.14-.17zM33.58 82.36c-.6.26-.82.61-.82 1.26 0 .7.22.96 1.27 1.46.6.29.73.4.73.65 0 .21-.09.33-.33.41-.3.1-.58.05-1.53-.25-.18-.06-.21-.01-.18.39.03.38.1.49.39.63.49.24 1.67.22 2.16-.04.71-.38.93-1.53.41-2.11-.12-.13-.55-.4-.98-.6-.78-.37-.97-.64-.7-.96.18-.21.71-.21 1.24.01.35.15.42.15.48.01.12-.32-.02-.7-.31-.85-.39-.21-1.39-.21-1.83-.01zM38.35 82.28c-1.04.37-1.51 1-1.61 2.12-.12 1.38.38 2.26 1.46 2.58 1.81.53 3.22-.52 3.21-2.39-.01-1.13-.52-1.96-1.4-2.26-.41-.14-1.34-.17-1.66-.05zm1.37 1.14c.31.26.33.34.33 1.17 0 .78-.03.92-.29 1.19-.37.39-1.07.42-1.42.07-.3-.3-.39-.69-.32-1.5.04-.53.12-.71.37-.94.42-.36.91-.35 1.33.01zM17.29 84.63l.03 2.34h1.18v-4.6l-.62-.03-.62-.04.03 2.33zM11.66 89.91c-1.51.33-2.65 1.16-3.25 2.39-.37.75-.39.86-.39 2.08 0 1.18.03 1.36.32 1.96.63 1.29 1.79 2.2 4.21 3.3 2.64 1.2 3.36 1.94 3.36 3.47 0 1.39-.65 2.22-2.08 2.66-1.42.44-2.84.23-4.68-.69-.61-.31-1.16-.58-1.2-.6-.05-.02-.16.05-.27.15-.22.23-.26 1.37-.05 1.75.44.83 2.75 1.6 4.76 1.6 3.78 0 6.22-2.25 6.02-5.56-.04-.72-.13-1.07-.43-1.67-.59-1.19-1.35-1.81-3.66-2.94-1.07-.52-2.24-1.15-2.61-1.4-1.46-.98-1.8-2.65-.77-3.81.57-.65 1.15-.86 2.34-.87 1.13 0 1.59.12 2.89.78 1.12.57 1.22.52 1.22-.59 0-1-.06-1.09-1.08-1.56-1.35-.59-3.16-.77-4.65-.45zM27.42 89.84c-2.23.36-3.95 1.44-5.1 3.21-.58.9-.9 1.74-1.2 3.16-.33 1.55-.25 5 .14 6.42.96 3.49 3.11 5.17 6.79 5.33 1.94.08 2.69-.06 4.59-.87.07-.03.39.17.71.44 1.22 1.06 3.9 2.58 4.84 2.76.58.11.74-.08.74-.9 0-.38-.03-.77-.07-.88-.04-.11-.6-.46-1.26-.79-1.01-.5-3.03-1.8-3.03-1.95 0-.03.19-.29.41-.59.95-1.24 1.52-2.97 1.72-5.21.15-1.71.01-3.54-.38-4.96-.71-2.57-2.44-4.34-4.88-5-.81-.2-3.13-.31-4.02-.17zm3.54 2.25c1.4.52 2.33 1.58 2.87 3.23.27.83.32 1.21.37 2.97.07 2.36-.11 3.5-.73 4.82-.99 2.12-3.16 3.18-5.69 2.79-3.14-.48-4.52-2.85-4.36-7.5.09-2.67.57-4.07 1.81-5.25.73-.7 1.26-1.01 2.11-1.22.98-.26 2.72-.18 3.62.16zM59.29 89.92c-1.45.35-2.68 1.25-3.21 2.33-.6 1.24-.62 2.99-.05 4.12.67 1.33 1.57 2.02 4.37 3.35 2.12 1.01 2.83 1.6 3.12 2.59.34 1.17-.1 2.39-1.08 3.03-1.53.99-3.71.83-6.04-.44-1.05-.57-1.2-.51-1.2.5 0 .94.13 1.22.77 1.59 1.97 1.16 5.25 1.31 7.29.35 2.46-1.16 3.57-4.21 2.41-6.63-.15-.31-.57-.85-.95-1.22-.58-.57-1.04-.85-2.98-1.8-3.22-1.58-3.86-2.26-3.67-3.87.1-.8.52-1.39 1.26-1.76.51-.26.79-.31 1.57-.31 1.16 0 1.63.12 2.8.72 1 .51 1.21.55 1.32.27.14-.35.07-1.52-.1-1.77-.23-.32-1.4-.84-2.39-1.05s-2.35-.22-3.24 0zM40.96 90.11c-.11.11-.14 2.18-.14 8.6v8.46l.29.29.29.29h4.18c3.2 0 4.2-.04 4.3-.15.18-.23.26-.92.16-1.38l-.09-.41-3.35-.06-3.35-.06-.03-7.77c-.02-6.03-.06-7.79-.17-7.86-.25-.14-1.93-.11-2.09.05zM72.39 94.53c-.57.09-1.71.54-2.18.86-1.13.77-1.93 2-2.38 3.65-.28 1.05-.28 3.64 0 4.71.58 2.19 1.86 3.52 3.9 4.06.89.23 3.14.23 4.24 0 1.04-.22 2.12-.62 2.32-.85.19-.22.18-1.41-.01-1.6-.1-.1-.41-.03-1.24.25-3.19 1.08-5.65.61-6.6-1.26-.28-.55-.54-1.65-.54-2.27v-.33h4.05c2.56 0 4.18-.05 4.41-.13.52-.18.66-.63.57-1.79-.18-2.3-.95-3.74-2.46-4.65-.96-.58-2.74-.87-4.08-.65zm2.16 1.85c1.2.36 1.94 1.38 2.05 2.79l.06.81h-6.78l.08-.49c.21-1.22.72-2.13 1.51-2.67.89-.61 2-.77 3.08-.44zM86.14 94.56c-.56.18-1.37.83-1.95 1.56l-.56.72-.06-1.05-.06-1.05-.7-.04c-.39-.02-.82-.01-.97.03l-.27.06v6.41c0 5.74.02 6.41.19 6.48.24.09 1.63.09 1.86 0 .17-.06.19-.55.19-4.25v-4.18l.52-.73c.71-1 1.63-1.81 2.16-1.91.28-.05.72-.01 1.24.12.51.13.85.16.92.09.06-.06.1-.54.08-1.04-.03-.9-.05-.94-.38-1.09-.41-.2-1.76-.28-2.21-.13zM106.42 94.57c-.93.16-2.25.84-2.93 1.52-1.29 1.29-1.83 3.07-1.74 5.71.08 2.38.52 3.56 1.77 4.73 1.19 1.13 2.45 1.5 4.73 1.43 1.67-.06 3.17-.39 3.86-.85.34-.23.38-.32.41-.9.02-.35-.02-.72-.08-.82-.12-.19-.02-.21-2.01.42-.81.25-1.24.31-2.24.32-1.98.01-3-.52-3.67-1.88-.28-.57-.38-.97-.43-1.63l-.06-.87 4.24-.03c5.09-.04 4.75.07 4.74-1.5-.01-2.76-1.2-4.68-3.35-5.43-.78-.26-2.35-.37-3.24-.22zm2.22 1.82c1.17.35 1.94 1.39 2.1 2.86l.08.73h-6.78l.07-.59c.17-1.44 1.16-2.68 2.44-3.07.49-.15 1.45-.11 2.09.07zM120.32 94.55c-.76.25-1.81 1.13-2.39 2-.19.29-.2.27-.2-.65 0-.58-.05-1-.14-1.08-.19-.19-1.65-.19-1.84 0-.2.2-.2 12.59 0 12.79.19.19 1.88.19 2.07 0 .1-.1.14-1.22.14-4.27v-4.13l.44-.65c.65-.97 1.47-1.73 2.04-1.9.49-.15.68-.13 1.99.21.37.1.48-.11.48-.9 0-.88-.08-1.12-.45-1.29-.38-.17-1.75-.26-2.14-.13zM89 94.86c-.12.15.24 1.25 2.06 6.33 1.21 3.38 2.3 6.25 2.42 6.38.45.46 2.68.35 2.88-.14.15-.39 4.28-11.86 4.36-12.13.14-.47-.11-.61-1.12-.61-.59 0-.96.05-1.03.15-.06.08-.9 2.47-1.86 5.31-.96 2.84-1.78 5.12-1.83 5.06-.05-.05-.87-2.37-1.82-5.16s-1.79-5.13-1.86-5.22c-.18-.23-2.02-.2-2.2.03z"></path>
  </symbol>

  <symbol id="sqlite" viewBox="0 0 128 128">
    <defs>
      <linearGradient id="sqlite-original-a" x1="-15.615" x2="-6.741" y1="-9.108" y2="-9.108"
                      gradientTransform="rotate(90 -90.486 64.634) scale(9.2712)"
                      gradientUnits="userSpaceOnUse">
        <stop stop-color="#95d7f4" offset="0"></stop>
        <stop stop-color="#0f7fcc" offset=".92"></stop>
        <stop stop-color="#0f7fcc" offset="1"></stop>
      </linearGradient>
    </defs>
    <path
      d="M69.5 99.176c-.059-.73-.094-1.2-.094-1.2S67.2 83.087 64.57 78.642c-.414-.707.043-3.594 1.207-7.88.68 1.169 3.54 6.192 4.118 7.81.648 1.824.78 2.347.78 2.347s-1.57-8.082-4.144-12.797a162.286 162.286 0 012.004-6.265c.973 1.71 3.313 5.859 3.828 7.3.102.293.192.543.27.774.023-.137.05-.274.074-.414-.59-2.504-1.75-6.86-3.336-10.082 3.52-18.328 15.531-42.824 27.84-53.754H16.9c-5.387 0-9.789 4.406-9.789 9.789v88.57c0 5.383 4.406 9.789 9.79 9.789h52.897a118.657 118.657 0 01-.297-14.652"
      fill="#0b7fcc"></path>
    <path
      d="M65.777 70.762c.68 1.168 3.54 6.188 4.117 7.809.649 1.824.781 2.347.781 2.347s-1.57-8.082-4.144-12.797a164.535 164.535 0 012.004-6.27c.887 1.567 2.922 5.169 3.652 6.872l.082-.961c-.648-2.496-1.633-5.766-2.898-8.328 3.242-16.871 13.68-38.97 24.926-50.898H16.899a6.94 6.94 0 00-6.934 6.933v82.11c17.527-6.731 38.664-12.88 56.855-12.614-.672-2.605-1.441-4.96-2.25-6.324-.414-.707.043-3.597 1.207-7.879"
      fill="url(#sqlite-original-a)"></path>
    <path
      d="M115.95 2.781c-5.5-4.906-12.164-2.933-18.734 2.899a44.347 44.347 0 00-2.914 2.859c-11.25 11.926-21.684 34.023-24.926 50.895 1.262 2.563 2.25 5.832 2.894 8.328.168.64.32 1.242.442 1.754.285 1.207.437 1.996.437 1.996s-.101-.383-.515-1.582c-.078-.23-.168-.484-.27-.773-.043-.125-.105-.274-.172-.434-.734-1.703-2.765-5.305-3.656-6.867-.762 2.25-1.437 4.36-2.004 6.265 2.578 4.715 4.149 12.797 4.149 12.797s-.137-.523-.782-2.347c-.578-1.621-3.441-6.64-4.117-7.809-1.164 4.281-1.625 7.172-1.207 7.88.809 1.362 1.574 3.722 2.25 6.323 1.524 5.867 2.586 13.012 2.586 13.012s.031.469.094 1.2a118.653 118.653 0 00.297 14.651c.504 6.11 1.453 11.363 2.664 14.172l.828-.449c-1.781-5.535-2.504-12.793-2.188-21.156.48-12.793 3.422-28.215 8.856-44.289 9.191-24.27 21.938-43.738 33.602-53.035-10.633 9.602-25.023 40.684-29.332 52.195-4.82 12.891-8.238 24.984-10.301 36.574 3.55-10.863 15.047-15.53 15.047-15.53s5.637-6.958 12.227-16.888c-3.95.903-10.43 2.442-12.598 3.352-3.2 1.344-4.067 1.8-4.067 1.8s10.371-6.312 19.27-9.171c12.234-19.27 25.562-46.648 12.141-58.621"
      fill="#003956"></path>
  </symbol>

  <symbol id="photoshop" viewBox="0 0 128 128">
    <path fill-rule="evenodd" clip-rule="evenodd" fill="#80B5E2"
          d="M126.216.727C89.993.716 53.932.717 17.708.717 12.527.717 7.257.713 2.076.728 1.748.729 1 .881 1 .964V127h126V.964c0-.083-.414-.237-.784-.237zM113.48 114.666c-32.641-.038-65.271-.03-97.912-.03-1.576 0-1.569-.003-1.569-1.627V15.212C14 13.605 13.984 14 15.577 14h97.798c1.638 0 1.625-.396 1.625 1.291v48.837c0 16.32-.007 32.64.036 48.959.004 1.243-.289 1.58-1.556 1.579zM56.82 39.644c-6.668-1.563-13.38-.792-20.085-.107-1.423.146-1.695.755-1.691 2.018C35.087 56.762 35 71.969 35 87.176V88h9V70.139c5 .375 9.576.286 14.049-1.31 7.169-2.558 10.752-8.111 10.365-16.219-.313-6.548-4.426-11.286-11.594-12.966zm-1.953 22.344c-3.194 1.557-6.59 1.52-10.005 1.058-.266-.036-.675-.511-.677-.784-.04-5.331-.03-10.661-.03-16.138 3.131-.488 6.1-.726 9.062.018 3.673.923 5.804 3.319 6.201 6.917.436 3.954-1.247 7.319-4.551 8.929zm33.301 7.106c-1.469-.805-3.08-1.347-4.606-2.053-1.41-.653-2.833-1.296-4.174-2.076-.935-.543-1.36-1.492-1.36-2.611 0-1.892 1.294-3.417 3.504-3.598 1.649-.135 3.361.035 4.994.34 1.376.256 2.681.899 4.082 1.395l1.767-6.269c-3.345-1.624-6.749-2.235-10.285-2.11-3.006.105-5.814.871-8.352 2.599-4.743 3.229-7.057 11.807.051 16.416 1.805 1.171 3.893 1.905 5.851 2.841 1.218.583 2.489 1.079 3.641 1.772 1.452.874 1.946 2.297 1.694 3.94-.247 1.615-1.33 2.638-2.836 2.874-1.68.264-3.466.435-5.118.144-2.339-.411-4.599-1.281-6.974-1.979-.426 1.59-.831 3.349-1.384 5.06-.303.938-.125 1.401.795 1.768 5.617 2.231 11.334 2.69 17.082.717 4.296-1.475 6.915-4.524 7.256-9.169.332-4.527-1.708-7.851-5.628-10.001z"></path>
  </symbol>

  <symbol id="python" viewBox="0 0 128 128">
    <g fill-rule="evenodd" clip-rule="evenodd">
      <path fill="#386f9f"
            d="M51.834 23.017c3.756 0 7.512.058 11.263-.04.995-.026 2.78.797 2.7-1.271-.061-1.683-1.622-1.074-2.568-1.089-4.237-.067-8.488-.228-12.708.037-3.003.187-3.888-.953-3.511-3.707.13-.95.005-1.934.025-2.902.132-6.446 1.69-8.64 7.942-10.23 6.888-1.75 13.937-1.692 20.806-.184 6.175 1.356 8.74 6.16 8.428 10.604-.38 5.423-.086 10.893-.091 16.343-.009 6.853-3.55 10.49-10.459 10.585-5.69.078-11.387.14-17.074-.018-6.778-.19-11.75 5.44-11.784 11.82 0 .484.083.984-.013 1.451-.488 2.343 1.462 6.13-1.022 6.826-3.78 1.062-8.206 1.062-11.54-2.311-1.13-1.14-2.082-2.417-2.584-3.893-2.679-7.865-3.102-15.83-.58-23.818 1.572-4.986 5.848-8.087 11.145-8.176 3.874-.065 7.749-.013 11.623-.013l.002-.014zm6.902-11.12c-.162-1.903-1.185-3.292-3.296-3.35-2.309-.06-3.502 1.336-3.505 3.608-.002 2.106 1.145 3.455 3.241 3.516 2.303.067 3.418-1.36 3.56-3.774z"></path>
      <path fill="#ffcf46"
            d="M80.824 61.572c-4.24 0-8.482-.037-12.722.03-.955.012-2.557-.592-2.607 1.041-.056 1.852 1.663 1.37 2.755 1.381 4.24.053 8.484.098 12.723-.02 2.178-.06 3.067.357 3.23 2.925.737 11.625-4.308 12.63-13.613 14.745-5.338 1.213-11.061.57-16.325-1.788-4.353-1.947-7.024-4.753-6.687-10.007.334-5.186.39-10.439-.009-15.62-.48-6.253 3.41-10.852 10.975-10.854 5.09-.001 10.214-.389 15.26.075 7.215.662 12.872-5.592 13.12-12.864.01-.241-.052-.5.01-.724.636-2.235-1.626-5.557 1.4-6.686 4.573-1.705 9.73.087 12.066 3.557 2.945 4.369 3.343 9.51 3.819 14.53.515 5.411-1.003 10.505-3.276 15.386-1.544 3.31-4.14 4.91-7.757 4.915-4.12.003-8.239 0-12.36 0-.002-.008-.002-.015-.002-.022zm-1.104 10.8c-.453-2.066-1.385-3.476-3.785-3.535-2.496-.06-3.14 1.807-3.127 3.474.014 1.772.508 3.952 3.21 3.748 2.246-.172 3.341-1.563 3.702-3.687z"></path>
      <path fill="#386f9f"
            d="M14.129 114.849c0 2.582.117 5-.055 7.397-.074 1.034 1.066 2.98-1.103 2.978-1.912 0-2.403-1.522-2.342-3.361.117-3.51.034-7.027.034-10.54v-7.998c0-4.82 1.293-6.452 5.903-7.45 4.286-.932 7.654.511 9.386 4.263 1.732 3.753 1.866 7.62.133 11.438-1.708 3.762-4.854 5.166-8.884 4.051-.918-.25-1.845-.467-3.072-.778zm0-9.448c0 1.33.18 2.686-.037 3.98-.502 2.991 1.408 3.728 3.66 4.26 2.227.526 3.754-.421 4.647-2.383 1.501-3.29 1.753-6.683.613-10.162-1.012-3.092-3.349-3.454-6.077-3.07-2.694.383-3.059 2.215-2.824 4.48.1.955.018 1.93.018 2.895zM43.116 114.689c-1.845.48-3.447.992-5.087 1.3-3.59.671-6.248-1.3-7.183-4.894-1.16-4.448-.178-8.879-.148-13.317.013-2.023 1.885-1.234 3.18-2.318 0 4.75.018 8.85-.006 12.947-.013 2.058.519 3.75 2.465 4.835 2.148 1.198 3.91.057 5.78-.712 1.34-.551 1.173-1.676 1.175-2.746.01-3.872-.001-7.74.012-11.612.002-.955-.097-2.122 1.313-2.075 1.257.041 1.804.788 1.783 2.158-.091 6.407.09 12.823-.17 19.221-.197 4.838-3.61 7.793-8.52 8.01-.735.031-1.505.099-1.78-.813-.419-1.404.718-1.139 1.465-1.378 5.401-1.718 6.107-2.744 5.721-8.606zM65.94 98.064c1.429-.675 2.25-1.293 3.153-1.46 5.067-.937 8.95-.58 8.94 6.245-.007 3.515.002 7.031-.007 10.545-.002.984.061 1.942-1.406 2.027-1.547.092-1.887-.793-1.88-2.006.018-3.387.11-6.774.107-10.16-.002-2.63-.539-4.958-3.884-4.95-2.934.005-5.012 2.195-5.027 5.217a899.58 899.58 0 00.003 9.814c.003 1.162.028 2.181-1.652 2.085-1.513-.09-1.327-1.11-1.327-2.049-.01-8.6.032-17.209-.041-25.815-.013-1.508.582-2.444 1.92-2.508 1.888-.087 1.023 1.564 1.051 2.392.123 3.371.05 6.75.05 10.623zM81.93 105.775c-.191-6.715 2.994-10.3 8.76-10.092 2.894.106 5.065 1.39 6.466 3.89 2.475 4.422 2.14 8.846-.538 12.987-1.84 2.844-4.67 4.185-8.12 3.453-3.402-.72-6.066-3.783-6.548-7.353-.128-.945-.02-1.924-.02-2.885zm13.32.157c-.152-1.172-.125-2.806-.613-4.264-.667-2-1.883-3.61-4.364-3.72-2.503-.108-3.752 1.355-4.587 3.38-1.311 3.179-1.226 6.371.194 9.493.912 2.011 2.32 3.483 4.76 3.075 2.403-.401 3.821-1.976 4.312-4.313.223-1.059.187-2.168.298-3.65zM102.257 106.827c0-1.212-.023-2.422.004-3.628.056-2.325-.685-4.901 2.45-6.089 3.59-1.356 7.148-2.372 10.762-.273 1.352.786 1.85 2.214 1.864 3.73.037 4.231-.019 8.464.038 12.695.02 1.476-.368 2.214-2.027 2.174-1.818-.043-1.435-1.283-1.423-2.273.043-3.38.278-6.757.214-10.132-.084-4.25-2.416-5.983-6.389-4.94-1.648.434-2.678 1.234-2.597 3.274.161 3.982.037 7.978.052 11.967.004 1.156.021 2.18-1.647 2.083-1.528-.088-1.278-1.145-1.29-2.062-.028-2.176-.008-4.353-.011-6.526zM58.689 97.403c-.25.296-.46.76-.68.764-3.964.055-2.864 3.014-2.966 5.209-.097 2.045 0 4.1-.029 6.151-.03 2.038.147 3.932 2.627 4.473.711.154 1.035.564.887 1.274-.163.784-.788.753-1.407.745-2.85-.05-4.963-2.065-5.047-5.015-.086-3.014.031-6.035-.04-9.046-.037-1.43.706-3.255-1.6-3.822-.253-.061-.343-.778-.508-1.187 3.076-.965 1.8-3.618 2.222-5.631.2-.953 1.105-1.214 1.96-1.295.865-.082.872.618.9 1.203.114 2.32-1.087 5.425 3.184 5.256.143-.005.31.562.497.92z"></path>
    </g>
  </symbol>

  <symbol id="linkedin" viewBox="0 0 128 128">
    <path fill="#56ccf2"
          d="M116 3H12a8.91 8.91 0 00-9 8.8v104.42a8.91 8.91 0 009 8.78h104a8.93 8.93 0 009-8.81V11.77A8.93 8.93 0 00116 3zM39.17 107H21.06V48.73h18.11zm-9-66.21a10.5 10.5 0 1110.49-10.5 10.5 10.5 0 01-10.54 10.48zM107 107H88.89V78.65c0-6.75-.12-15.44-9.41-15.44s-10.87 7.36-10.87 15V107H50.53V48.73h17.36v8h.24c2.42-4.58 8.32-9.41 17.13-9.41C103.6 47.28 107 59.35 107 75z"></path>
  </symbol>

  <symbol id="discord" viewBox="0 0 32 32">
    <path fill="#56ccf2"
          d="M20.992 20.163c-1.511-0.099-2.699-1.349-2.699-2.877 0-0.051 0.001-0.102 0.004-0.153l-0 0.007c-0.003-0.048-0.005-0.104-0.005-0.161 0-1.525 1.19-2.771 2.692-2.862l0.008-0c1.509 0.082 2.701 1.325 2.701 2.847 0 0.062-0.002 0.123-0.006 0.184l0-0.008c0.003 0.050 0.005 0.109 0.005 0.168 0 1.523-1.191 2.768-2.693 2.854l-0.008 0zM11.026 20.163c-1.511-0.099-2.699-1.349-2.699-2.877 0-0.051 0.001-0.102 0.004-0.153l-0 0.007c-0.003-0.048-0.005-0.104-0.005-0.161 0-1.525 1.19-2.771 2.692-2.862l0.008-0c1.509 0.082 2.701 1.325 2.701 2.847 0 0.062-0.002 0.123-0.006 0.184l0-0.008c0.003 0.048 0.005 0.104 0.005 0.161 0 1.525-1.19 2.771-2.692 2.862l-0.008 0zM26.393 6.465c-1.763-0.832-3.811-1.49-5.955-1.871l-0.149-0.022c-0.005-0.001-0.011-0.002-0.017-0.002-0.035 0-0.065 0.019-0.081 0.047l-0 0c-0.234 0.411-0.488 0.924-0.717 1.45l-0.043 0.111c-1.030-0.165-2.218-0.259-3.428-0.259s-2.398 0.094-3.557 0.275l0.129-0.017c-0.27-0.63-0.528-1.142-0.813-1.638l0.041 0.077c-0.017-0.029-0.048-0.047-0.083-0.047-0.005 0-0.011 0-0.016 0.001l0.001-0c-2.293 0.403-4.342 1.060-6.256 1.957l0.151-0.064c-0.017 0.007-0.031 0.019-0.040 0.034l-0 0c-2.854 4.041-4.562 9.069-4.562 14.496 0 0.907 0.048 1.802 0.141 2.684l-0.009-0.11c0.003 0.029 0.018 0.053 0.039 0.070l0 0c2.14 1.601 4.628 2.891 7.313 3.738l0.176 0.048c0.008 0.003 0.018 0.004 0.028 0.004 0.032 0 0.060-0.015 0.077-0.038l0-0c0.535-0.72 1.044-1.536 1.485-2.392l0.047-0.1c0.006-0.012 0.010-0.027 0.010-0.043 0-0.041-0.026-0.075-0.062-0.089l-0.001-0c-0.912-0.352-1.683-0.727-2.417-1.157l0.077 0.042c-0.029-0.017-0.048-0.048-0.048-0.083 0-0.031 0.015-0.059 0.038-0.076l0-0c0.157-0.118 0.315-0.24 0.465-0.364 0.016-0.013 0.037-0.021 0.059-0.021 0.014 0 0.027 0.003 0.038 0.008l-0.001-0c2.208 1.061 4.8 1.681 7.536 1.681s5.329-0.62 7.643-1.727l-0.107 0.046c0.012-0.006 0.025-0.009 0.040-0.009 0.022 0 0.043 0.008 0.059 0.021l-0-0c0.15 0.124 0.307 0.248 0.466 0.365 0.023 0.018 0.038 0.046 0.038 0.077 0 0.035-0.019 0.065-0.046 0.082l-0 0c-0.661 0.395-1.432 0.769-2.235 1.078l-0.105 0.036c-0.036 0.014-0.062 0.049-0.062 0.089 0 0.016 0.004 0.031 0.011 0.044l-0-0.001c0.501 0.96 1.009 1.775 1.571 2.548l-0.040-0.057c0.017 0.024 0.046 0.040 0.077 0.040 0.010 0 0.020-0.002 0.029-0.004l-0.001 0c2.865-0.892 5.358-2.182 7.566-3.832l-0.065 0.047c0.022-0.016 0.036-0.041 0.039-0.069l0-0c0.087-0.784 0.136-1.694 0.136-2.615 0-5.415-1.712-10.43-4.623-14.534l0.052 0.078c-0.008-0.016-0.022-0.029-0.038-0.036l-0-0z"></path>
  </symbol>

  <symbol id="location" viewBox="0 0 64 64">
    <path fill="#56ccf2" d="M32,0C18.746,0,8,10.746,8,24c0,5.219,1.711,10.008,4.555,13.93c0.051,0.094,0.059,0.199,0.117,0.289l16,24
	    C29.414,63.332,30.664,64,32,64s2.586-0.668,3.328-1.781l16-24c0.059-0.09,0.066-0.195,0.117-0.289C54.289,34.008,56,29.219,56,24
	    C56,10.746,45.254,0,32,0z M32,32c-4.418,0-8-3.582-8-8s3.582-8,8-8s8,3.582,8,8S36.418,32,32,32z"/>
  </symbol>

  <symbol id="telegram" viewBox="0 0 24 24">
    <path fill="#56ccf2"
          d="m12 0c-6.627 0-12 5.373-12 12s5.373 12 12 12 12-5.373 12-12c0-6.627-5.373-12-12-12zm5.894 8.221-1.97 9.28c-.145.658-.537.818-1.084.508l-3-2.21-1.446 1.394c-.14.18-.357.295-.6.295-.002 0-.003 0-.005 0l.213-3.054 5.56-5.022c.24-.213-.054-.334-.373-.121l-6.869 4.326-2.96-.924c-.64-.203-.658-.64.135-.954l11.566-4.458c.538-.196 1.006.128.832.941z"/>
  </symbol>

  <symbol id="github-contacts" viewBox="0 0 128 128">
    <g fill="#56ccf2">
      <path fill-rule="evenodd" clip-rule="evenodd"
            d="M64 5.103c-33.347 0-60.388 27.035-60.388 60.388 0 26.682 17.303 49.317 41.297 57.303 3.017.56 4.125-1.31 4.125-2.905 0-1.44-.056-6.197-.082-11.243-16.8 3.653-20.345-7.125-20.345-7.125-2.747-6.98-6.705-8.836-6.705-8.836-5.48-3.748.413-3.67.413-3.67 6.063.425 9.257 6.223 9.257 6.223 5.386 9.23 14.127 6.562 17.573 5.02.542-3.903 2.107-6.568 3.834-8.076-13.413-1.525-27.514-6.704-27.514-29.843 0-6.593 2.36-11.98 6.223-16.21-.628-1.52-2.695-7.662.584-15.98 0 0 5.07-1.623 16.61 6.19C53.7 35 58.867 34.327 64 34.304c5.13.023 10.3.694 15.127 2.033 11.526-7.813 16.59-6.19 16.59-6.19 3.287 8.317 1.22 14.46.593 15.98 3.872 4.23 6.215 9.617 6.215 16.21 0 23.194-14.127 28.3-27.574 29.796 2.167 1.874 4.097 5.55 4.097 11.183 0 8.08-.07 14.583-.07 16.572 0 1.607 1.088 3.49 4.148 2.897 23.98-7.994 41.263-30.622 41.263-57.294C124.388 32.14 97.35 5.104 64 5.104z"></path>
      <path
        d="M26.484 91.806c-.133.3-.605.39-1.035.185-.44-.196-.685-.605-.543-.906.13-.31.603-.395 1.04-.188.44.197.69.61.537.91zm2.446 2.729c-.287.267-.85.143-1.232-.28-.396-.42-.47-.983-.177-1.254.298-.266.844-.14 1.24.28.394.426.472.984.17 1.255zM31.312 98.012c-.37.258-.976.017-1.35-.52-.37-.538-.37-1.183.01-1.44.373-.258.97-.025 1.35.507.368.545.368 1.19-.01 1.452zm3.261 3.361c-.33.365-1.036.267-1.552-.23-.527-.487-.674-1.18-.343-1.544.336-.366 1.045-.264 1.564.23.527.486.686 1.18.333 1.543zm4.5 1.951c-.147.473-.825.688-1.51.486-.683-.207-1.13-.76-.99-1.238.14-.477.823-.7 1.512-.485.683.206 1.13.756.988 1.237zm4.943.361c.017.498-.563.91-1.28.92-.723.017-1.308-.387-1.315-.877 0-.503.568-.91 1.29-.924.717-.013 1.306.387 1.306.88zm4.598-.782c.086.485-.413.984-1.126 1.117-.7.13-1.35-.172-1.44-.653-.086-.498.422-.997 1.122-1.126.714-.123 1.354.17 1.444.663zm0 0"></path>
    </g>
  </symbol>

  <symbol id="rsschool" viewBox="0 0 80 29">
    <path d="M41.2862 9.10523L45.0447 8.86509C45.1304 9.4725 45.2876 9.92452 45.5449 10.2494C45.9593 10.7579 46.5309 11.0122 47.2883 11.0122C47.8457 11.0122 48.2887 10.8851 48.5888 10.6167C48.8746 10.4048 49.0461 10.0658 49.0461 9.71263C49.0461 9.37362 48.8889 9.04872 48.6174 8.83684C48.3316 8.58258 47.6599 8.32832 46.6024 8.1023C44.8732 7.72091 43.6299 7.21239 42.9011 6.56261C42.1722 5.9552 41.7578 5.06528 41.7864 4.11886C41.7864 3.46908 41.9864 2.8193 42.358 2.28253C42.7867 1.67512 43.3726 1.19485 44.0729 0.926463C44.8303 0.601572 45.8878 0.432064 47.2169 0.432064C48.8461 0.432064 50.0894 0.728703 50.9468 1.33611C51.8043 1.92939 52.3187 2.88993 52.4759 4.20362L48.7603 4.4155C48.6603 3.85048 48.4602 3.44083 48.1315 3.17244C47.8028 2.90406 47.3741 2.77693 46.8168 2.77693C46.3594 2.77693 46.0165 2.87581 45.7878 3.05944C45.5734 3.22895 45.4305 3.48321 45.4448 3.76572C45.4448 3.97761 45.5592 4.17537 45.7306 4.3025C45.9164 4.47201 46.3594 4.62739 47.0597 4.76865C48.7889 5.13591 50.0179 5.50318 50.7753 5.88457C51.5327 6.26597 52.0758 6.73211 52.4045 7.28301C52.7475 7.84804 52.919 8.49782 52.9047 9.16173C52.9047 9.95277 52.676 10.7438 52.2187 11.4077C51.7471 12.0999 51.0897 12.6366 50.318 12.9615C49.5034 13.3147 48.4745 13.4983 47.2455 13.4983C45.0733 13.4983 43.5727 13.0887 42.7296 12.2553C41.8864 11.4218 41.3862 10.3765 41.2862 9.10523ZM1.40033 13.2864V0.658075H7.98842C9.20315 0.658075 10.1463 0.756955 10.7894 0.96884C11.4182 1.1666 11.9756 1.57624 12.3471 2.12714C12.7616 2.73455 12.9616 3.44083 12.9474 4.17537C12.9902 5.41843 12.3471 6.60498 11.2467 7.22651C10.818 7.46665 10.3464 7.63616 9.86053 7.72091C10.2178 7.81979 10.5751 7.9893 10.8895 8.18706C11.1324 8.38482 11.3325 8.61083 11.5183 8.85096C11.7326 9.0911 11.9184 9.35949 12.0756 9.642L13.9906 13.3006H9.50326L7.38821 9.41599C7.11668 8.92159 6.88802 8.5967 6.67366 8.44132C6.38784 8.24356 6.04486 8.14468 5.70188 8.14468H5.3589V13.2723H1.40033V13.2864ZM5.3589 5.77157H7.03093C7.38821 5.74332 7.73119 5.68681 8.07417 5.60206C8.3314 5.55968 8.56006 5.41843 8.71726 5.20654C9.10311 4.69802 9.04595 3.97761 8.57435 3.53971C8.31711 3.32783 7.81693 3.21482 7.10239 3.21482H5.3589V5.77157ZM0.5 24.1067L4.2585 23.8666C4.34425 24.474 4.50145 24.926 4.75868 25.2509C5.15883 25.7594 5.74475 26.0278 6.50217 26.0278C7.05951 26.0278 7.50253 25.9007 7.80264 25.6323C8.08846 25.4063 8.25995 25.0814 8.25995 24.7282C8.25995 24.3892 8.10275 24.0643 7.83122 23.8524C7.5454 23.5982 6.87373 23.3439 5.80192 23.1179C4.07272 22.7365 2.82941 22.228 2.10058 21.5782C1.37174 20.9708 0.957308 20.0809 0.98589 19.1345C0.98589 18.4847 1.18596 17.8349 1.55753 17.2981C1.98625 16.6907 2.57218 16.2104 3.27243 15.9421C4.02985 15.6172 5.08737 15.4477 6.41643 15.4477C8.04559 15.4477 9.28889 15.7443 10.1463 16.3517C11.0038 16.9591 11.504 17.9055 11.6612 19.2192L7.94555 19.4311C7.84551 18.8661 7.64544 18.4564 7.31675 18.188C7.00235 17.9196 6.55933 17.7925 6.00199 17.8066C5.54468 17.8066 5.2017 17.9055 4.97305 18.1033C4.74439 18.2728 4.61577 18.527 4.63006 18.8096C4.63006 19.0214 4.74439 19.2192 4.91588 19.3463C5.10166 19.5158 5.54468 19.6712 6.24494 19.8125C7.97413 20.1798 9.20315 20.547 9.96056 20.9284C10.718 21.3098 11.261 21.776 11.5897 22.3269C11.9327 22.8919 12.1042 23.5417 12.1042 24.1914C12.1042 24.9825 11.8613 25.7594 11.4182 26.4233C10.9466 27.1155 10.2893 27.6522 9.51755 27.9771C8.70297 28.3303 7.67402 28.5139 6.44501 28.5139C4.27279 28.5139 2.77225 28.1043 1.92909 27.2708C1.08593 26.4233 0.614327 25.378 0.5 24.1067Z"></path>
    <path d="M19.5069 23.1178L22.9653 24.149C22.7795 25.0107 22.3937 25.83 21.8649 26.5504C21.379 27.186 20.7359 27.6804 20.0071 28.0053C19.264 28.3302 18.3208 28.4997 17.1775 28.4997C15.7913 28.4997 14.648 28.302 13.7763 27.9064C12.8902 27.5109 12.1328 26.8046 11.4897 25.8017C10.8466 24.7988 10.5322 23.5134 10.5322 21.9454C10.5322 19.8548 11.0896 18.2445 12.2185 17.1286C13.3475 16.0126 14.9338 15.4476 16.9917 15.4476C18.6066 15.4476 19.8642 15.7725 20.7931 16.4081C21.7077 17.0579 22.3937 18.0467 22.851 19.3745L19.364 20.1373C19.2782 19.8407 19.1496 19.544 18.9781 19.2898C18.7638 18.9931 18.4922 18.7671 18.1636 18.5976C17.8349 18.4281 17.4633 18.3575 17.0917 18.3575C16.1914 18.3575 15.5055 18.7106 15.0339 19.431C14.6766 19.9537 14.4908 20.7871 14.4908 21.9172C14.4908 23.3156 14.7052 24.2761 15.1339 24.7988C15.5626 25.3214 16.1628 25.5757 16.9488 25.5757C17.7062 25.5757 18.2779 25.3638 18.6637 24.9542C19.0496 24.5163 19.3354 23.9089 19.5069 23.1178ZM27.5813 15.6595H31.5255V20.0808H35.8414V15.6595H39.8143V28.2878H35.8414V23.1743H31.5255V28.2878H27.5813V15.6595Z"></path>
    <path d="M39.2712 21.9738C39.2712 19.9114 39.8571 18.3011 41.0147 17.1569C42.1722 16.0127 43.8014 15.4336 45.8736 15.4336C48.0029 15.4336 49.6321 15.9986 50.7896 17.1287C51.9472 18.2587 52.5188 19.8408 52.5188 21.8749C52.5188 23.3581 52.2616 24.5588 51.7614 25.5052C51.2755 26.4375 50.5181 27.2003 49.5892 27.7088C48.6317 28.2314 47.4456 28.4998 46.0308 28.4998C44.5874 28.4998 43.4013 28.2738 42.4581 27.8218C41.4863 27.3415 40.686 26.5929 40.1572 25.6747C39.5713 24.6859 39.2712 23.457 39.2712 21.9738ZM43.2155 21.9879C43.2155 23.2592 43.4584 24.1774 43.93 24.7424C44.4016 25.2933 45.059 25.5758 45.8879 25.5758C46.731 25.5758 47.3884 25.3074 47.86 24.7565C48.3316 24.2056 48.5603 23.231 48.5603 21.8184C48.5603 20.6318 48.3173 19.756 47.8314 19.2193C47.3455 18.6684 46.6882 18.4 45.8593 18.4C45.1305 18.3717 44.4302 18.6825 43.9443 19.2334C43.4584 19.7843 43.2155 20.7025 43.2155 21.9879ZM56.5632 21.9738C56.5632 19.9114 57.1491 18.3011 58.3067 17.1569C59.4642 16.0127 61.0934 15.4336 63.1656 15.4336C65.2949 15.4336 66.9383 15.9986 68.0816 17.1287C69.2249 18.2587 69.8108 19.8408 69.8108 21.8749C69.8108 23.3581 69.5536 24.5588 69.0534 25.5052C68.5675 26.4375 67.8101 27.2003 66.8812 27.7088C65.9237 28.2314 64.7376 28.4998 63.3228 28.4998C61.8794 28.4998 60.6932 28.2738 59.75 27.8218C58.7782 27.3415 57.978 26.5929 57.4492 25.6747C56.8633 24.6859 56.5632 23.457 56.5632 21.9738ZM60.5074 21.9879C60.5074 23.2592 60.7504 24.1774 61.222 24.7424C61.6936 25.2933 62.351 25.5758 63.1798 25.5758C64.023 25.5758 64.6804 25.3074 65.152 24.7565C65.6236 24.2056 65.8522 23.231 65.8522 21.8184C65.8522 20.6318 65.6093 19.756 65.1234 19.2193C64.6375 18.6684 63.9801 18.4 63.1513 18.4C62.4224 18.3717 61.7079 18.6825 61.2363 19.2334C60.7504 19.7843 60.5074 20.7025 60.5074 21.9879Z"></path>
    <path d="M73.3407 15.6594V25.1802H79.5V28.2878H69.3821V15.6594H73.3407Z"></path>
    <path fill-rule="evenodd" clip-rule="evenodd" d="M56.7449 4.03879C53.0602 6.78342 52.187 11.1981 54.2055 13.8456C56.2239 16.4931 60.7579 16.8802 64.4426 14.1355C68.1273 11.3909 69.0004 6.97625 66.982 4.32874C64.9635 1.68124 60.4296 1.29416 56.7449 4.03879ZM52.6015 15.0403C49.699 11.2331 51.2749 5.6195 55.5323 2.4483C59.7897 -0.722899 65.6834 -0.673156 68.5859 3.13402C71.4885 6.94119 69.9125 12.5548 65.6552 15.726C61.3978 18.8972 55.5041 18.8475 52.6015 15.0403Z"></path>
    <path d="M56.5774 8.15874L58.0065 7.16995L59.7643 9.64194C60.0644 10.0375 60.2931 10.4612 60.4646 10.9274C60.5646 11.2805 60.536 11.6619 60.3931 12.0009C60.2073 12.4247 59.9072 12.7778 59.5071 13.0321C59.0355 13.357 58.6353 13.5406 58.2924 13.5971C57.9637 13.6536 57.6207 13.5971 57.3063 13.4559C56.9633 13.2864 56.6632 13.0462 56.4345 12.7355L57.6636 11.6054C57.7636 11.7608 57.8922 11.902 58.0351 12.015C58.1352 12.0857 58.2495 12.1281 58.3781 12.1281C58.4781 12.1281 58.5782 12.0857 58.6496 12.0292C58.7925 11.9444 58.8926 11.7749 58.8783 11.6054C58.8354 11.3653 58.7354 11.1251 58.5782 10.9415L56.5774 8.15874ZM60.8647 9.72669L62.1652 8.70964C62.3081 8.87915 62.4939 9.00628 62.6939 9.07691C62.9798 9.16166 63.2799 9.10516 63.5228 8.92153C63.6943 8.80852 63.8372 8.65314 63.8944 8.45538C63.9801 8.20112 63.8372 7.91861 63.58 7.83385C63.5371 7.81973 63.4942 7.8056 63.4514 7.8056C63.2799 7.79148 62.9798 7.8621 62.5367 8.04574C61.8079 8.34238 61.2363 8.45538 60.8075 8.413C60.3931 8.37063 60.0073 8.15874 59.7786 7.8056C59.6071 7.56546 59.5214 7.28295 59.5071 7.00044C59.5071 6.67555 59.5928 6.35066 59.7786 6.08227C60.0501 5.70088 60.3788 5.37599 60.779 5.12172C61.3792 4.71208 61.9079 4.51432 62.3652 4.51432C62.8226 4.51432 63.2513 4.7262 63.6514 5.1641L62.3652 6.16702C62.108 5.84213 61.6221 5.7715 61.2934 6.02577L61.2506 6.06814C61.1077 6.1529 61.0076 6.28003 60.9505 6.43541C60.9076 6.54842 60.9362 6.67555 61.0076 6.77443C61.0648 6.84506 61.1505 6.90156 61.2506 6.90156C61.3649 6.91568 61.565 6.85918 61.8508 6.73205C62.5653 6.43541 63.1084 6.2659 63.4799 6.2094C63.7943 6.1529 64.123 6.18115 64.4231 6.30828C64.6947 6.42129 64.9233 6.61904 65.0805 6.85918C65.2806 7.14169 65.3949 7.48071 65.4092 7.83385C65.4235 8.20112 65.3235 8.55426 65.1234 8.86503C64.8662 9.24642 64.5375 9.57131 64.1516 9.82557C63.3656 10.3623 62.7225 10.5884 62.208 10.5036C61.6507 10.4188 61.1934 10.1363 60.8647 9.72669Z"></path>
  </symbol>

</svg>
